<?xml version="1.0" encoding="us-ascii" standalone="no"?><svg xmlns="http://www.w3.org/2000/svg" xmlns:xlink="http://www.w3.org/1999/xlink" contentStyleType="text/css" height="473px" preserveAspectRatio="none" style="width:433px;height:473px;background:#FFFFFF;" version="1.1" viewBox="0 0 433 473" width="433px" zoomAndPan="magnify"><defs/><g><!--class user--><g id="elem_user"><rect codeLine="7" fill="#F1F1F1" height="96.8906" id="user" rx="2.5" ry="2.5" style="stroke:#181818;stroke-width:0.5;" width="173" x="152" y="7"/><ellipse cx="185" cy="23" fill="#ADD1B2" rx="11" ry="11" style="stroke:#181818;stroke-width:1.0;"/><path d="M189.1094,29 L181.3906,29 L181.3906,16.6094 L189.1094,16.6094 L189.1094,18.7656 L183.8438,18.7656 L183.8438,21.4375 L188.6094,21.4375 L188.6094,23.5938 L183.8438,23.5938 L183.8438,26.8438 L189.1094,26.8438 L189.1094,29 Z " fill="#000000"/><text fill="#000000" font-family="sans-serif" font-size="14" lengthAdjust="spacing" textLength="101" x="203" y="27.8467">User (main db)</text><line style="stroke:#181818;stroke-width:0.5;" x1="153" x2="324" y1="39" y2="39"/><ellipse cx="163" cy="52.6484" fill="#000000" rx="3" ry="3" style="stroke:#000000;stroke-width:1.0;"/><text fill="#000000" font-family="sans-serif" font-size="14" lengthAdjust="spacing" textLength="55" x="172" y="55.9951">id : uuid</text><line style="stroke:#181818;stroke-width:1.0;" x1="153" x2="324" y1="63.2969" y2="63.2969"/><ellipse cx="163" cy="76.9453" fill="#000000" rx="3" ry="3" style="stroke:#000000;stroke-width:1.0;"/><text fill="#000000" font-family="sans-serif" font-size="14" lengthAdjust="spacing" textLength="78" x="172" y="80.292">name : text</text><ellipse cx="163" cy="93.2422" fill="#000000" rx="3" ry="3" style="stroke:#000000;stroke-width:1.0;"/><text fill="#000000" font-family="sans-serif" font-size="14" lengthAdjust="spacing" textLength="147" x="172" y="96.5889">password_hash : text</text></g><!--class task--><g id="elem_task"><rect codeLine="14" fill="#F1F1F1" height="129.4844" id="task" rx="2.5" ry="2.5" style="stroke:#181818;stroke-width:0.5;" width="138" x="108.5" y="163.89"/><ellipse cx="156.75" cy="179.89" fill="#ADD1B2" rx="11" ry="11" style="stroke:#181818;stroke-width:1.0;"/><path d="M160.8594,185.89 L153.1406,185.89 L153.1406,173.4994 L160.8594,173.4994 L160.8594,175.6556 L155.5938,175.6556 L155.5938,178.3275 L160.3594,178.3275 L160.3594,180.4838 L155.5938,180.4838 L155.5938,183.7338 L160.8594,183.7338 L160.8594,185.89 Z " fill="#000000"/><text fill="#000000" font-family="sans-serif" font-size="14" lengthAdjust="spacing" textLength="33" x="177.25" y="184.7367">Task</text><line style="stroke:#181818;stroke-width:0.5;" x1="109.5" x2="245.5" y1="195.89" y2="195.89"/><ellipse cx="119.5" cy="209.5384" fill="#000000" rx="3" ry="3" style="stroke:#000000;stroke-width:1.0;"/><text fill="#000000" font-family="sans-serif" font-size="14" lengthAdjust="spacing" textLength="51" x="128.5" y="212.8851">id: uuid</text><line style="stroke:#181818;stroke-width:1.0;" x1="109.5" x2="245.5" y1="220.1869" y2="220.1869"/><ellipse cx="119.5" cy="233.8353" fill="#000000" rx="3" ry="3" style="stroke:#000000;stroke-width:1.0;"/><text fill="#000000" font-family="sans-serif" font-size="14" lengthAdjust="spacing" textLength="84" x="128.5" y="237.182">author: uuid</text><ellipse cx="119.5" cy="250.1322" fill="#000000" rx="3" ry="3" style="stroke:#000000;stroke-width:1.0;"/><text fill="#000000" font-family="sans-serif" font-size="14" lengthAdjust="spacing" textLength="60" x="128.5" y="253.4789">title: text</text><ellipse cx="119.5" cy="266.4291" fill="#000000" rx="3" ry="3" style="stroke:#000000;stroke-width:1.0;"/><text fill="#000000" font-family="sans-serif" font-size="14" lengthAdjust="spacing" textLength="78" x="128.5" y="269.7757">status: text</text><text fill="#000000" font-family="sans-serif" font-size="14" lengthAdjust="spacing" textLength="112" x="128.5" y="286.0726">description: text</text></g><!--class comment--><g id="elem_comment"><rect codeLine="23" fill="#F1F1F1" height="113.1875" id="comment" rx="2.5" ry="2.5" style="stroke:#181818;stroke-width:0.5;" width="113" x="7" y="353.37"/><ellipse cx="27.85" cy="369.37" fill="#ADD1B2" rx="11" ry="11" style="stroke:#181818;stroke-width:1.0;"/><path d="M31.9594,375.37 L24.2406,375.37 L24.2406,362.9794 L31.9594,362.9794 L31.9594,365.1356 L26.6938,365.1356 L26.6938,367.8075 L31.4594,367.8075 L31.4594,369.9638 L26.6938,369.9638 L26.6938,373.2138 L31.9594,373.2138 L31.9594,375.37 Z " fill="#000000"/><text fill="#000000" font-family="sans-serif" font-size="14" lengthAdjust="spacing" textLength="68" x="43.15" y="374.2167">Comment</text><line style="stroke:#181818;stroke-width:0.5;" x1="8" x2="119" y1="385.37" y2="385.37"/><ellipse cx="18" cy="399.0184" fill="#000000" rx="3" ry="3" style="stroke:#000000;stroke-width:1.0;"/><text fill="#000000" font-family="sans-serif" font-size="14" lengthAdjust="spacing" textLength="51" x="27" y="402.3651">id: uuid</text><line style="stroke:#181818;stroke-width:1.0;" x1="8" x2="119" y1="409.6669" y2="409.6669"/><ellipse cx="18" cy="423.3153" fill="#000000" rx="3" ry="3" style="stroke:#000000;stroke-width:1.0;"/><text fill="#000000" font-family="sans-serif" font-size="14" lengthAdjust="spacing" textLength="87" x="27" y="426.662">task_id: uuid</text><ellipse cx="18" cy="439.6122" fill="#000000" rx="3" ry="3" style="stroke:#000000;stroke-width:1.0;"/><text fill="#000000" font-family="sans-serif" font-size="14" lengthAdjust="spacing" textLength="84" x="27" y="442.9589">author: uuid</text><ellipse cx="18" cy="455.9091" fill="#000000" rx="3" ry="3" style="stroke:#000000;stroke-width:1.0;"/><text fill="#000000" font-family="sans-serif" font-size="14" lengthAdjust="spacing" textLength="61" x="27" y="459.2557">text: text</text></g><!--class like--><g id="elem_like"><rect codeLine="31" fill="#F1F1F1" height="96.8906" id="like" rx="2.5" ry="2.5" style="stroke:#181818;stroke-width:0.5;" width="115" x="159" y="361.52"/><ellipse cx="199.2" cy="377.52" fill="#ADD1B2" rx="11" ry="11" style="stroke:#181818;stroke-width:1.0;"/><path d="M203.3094,383.52 L195.5906,383.52 L195.5906,371.1294 L203.3094,371.1294 L203.3094,373.2856 L198.0438,373.2856 L198.0438,375.9575 L202.8094,375.9575 L202.8094,378.1138 L198.0438,378.1138 L198.0438,381.3638 L203.3094,381.3638 L203.3094,383.52 Z " fill="#000000"/><text fill="#000000" font-family="sans-serif" font-size="14" lengthAdjust="spacing" textLength="27" x="218.8" y="382.3667">Like</text><line style="stroke:#181818;stroke-width:0.5;" x1="160" x2="273" y1="393.52" y2="393.52"/><ellipse cx="170" cy="407.1684" fill="#000000" rx="3" ry="3" style="stroke:#000000;stroke-width:1.0;"/><text fill="#000000" font-family="sans-serif" font-size="14" lengthAdjust="spacing" textLength="51" x="179" y="410.5151">id: uuid</text><line style="stroke:#181818;stroke-width:1.0;" x1="160" x2="273" y1="417.8169" y2="417.8169"/><ellipse cx="170" cy="431.4653" fill="#000000" rx="3" ry="3" style="stroke:#000000;stroke-width:1.0;"/><text fill="#000000" font-family="sans-serif" font-size="14" lengthAdjust="spacing" textLength="87" x="179" y="434.812">task_id: uuid</text><ellipse cx="170" cy="447.7622" fill="#000000" rx="3" ry="3" style="stroke:#000000;stroke-width:1.0;"/><text fill="#000000" font-family="sans-serif" font-size="14" lengthAdjust="spacing" textLength="89" x="179" y="451.1089">user_id: uuid</text></g><!--class view--><g id="elem_view"><rect codeLine="38" fill="#F1F1F1" height="96.8906" id="view" rx="2.5" ry="2.5" style="stroke:#181818;stroke-width:0.5;" width="115" x="311" y="361.52"/><ellipse cx="348.95" cy="377.52" fill="#ADD1B2" rx="11" ry="11" style="stroke:#181818;stroke-width:1.0;"/><path d="M353.0594,383.52 L345.3406,383.52 L345.3406,371.1294 L353.0594,371.1294 L353.0594,373.2856 L347.7938,373.2856 L347.7938,375.9575 L352.5594,375.9575 L352.5594,378.1138 L347.7938,378.1138 L347.7938,381.3638 L353.0594,381.3638 L353.0594,383.52 Z " fill="#000000"/><text fill="#000000" font-family="sans-serif" font-size="14" lengthAdjust="spacing" textLength="32" x="368.05" y="382.3667">View</text><line style="stroke:#181818;stroke-width:0.5;" x1="312" x2="425" y1="393.52" y2="393.52"/><ellipse cx="322" cy="407.1684" fill="#000000" rx="3" ry="3" style="stroke:#000000;stroke-width:1.0;"/><text fill="#000000" font-family="sans-serif" font-size="14" lengthAdjust="spacing" textLength="51" x="331" y="410.5151">id: uuid</text><line style="stroke:#181818;stroke-width:1.0;" x1="312" x2="425" y1="417.8169" y2="417.8169"/><ellipse cx="322" cy="431.4653" fill="#000000" rx="3" ry="3" style="stroke:#000000;stroke-width:1.0;"/><text fill="#000000" font-family="sans-serif" font-size="14" lengthAdjust="spacing" textLength="87" x="331" y="434.812">task_id: uuid</text><ellipse cx="322" cy="447.7622" fill="#000000" rx="3" ry="3" style="stroke:#000000;stroke-width:1.0;"/><text fill="#000000" font-family="sans-serif" font-size="14" lengthAdjust="spacing" textLength="89" x="331" y="451.1089">user_id: uuid</text></g><!--link user to task--><g id="link_user_task"><path codeLine="45" d="M199.25,112.15 C199.25,130.55 199.25,125.81 199.25,145.49 " fill="none" id="user-task" style="stroke:#181818;stroke-width:1.0;"/><line style="stroke:#181818;stroke-width:1.0;" x1="195.25" x2="203.25" y1="108.15" y2="108.15"/><line style="stroke:#181818;stroke-width:1.0;" x1="195.25" x2="203.25" y1="111.15" y2="111.15"/><line style="stroke:#181818;stroke-width:1.0;" x1="199.25" x2="199.25" y1="112.15" y2="104.15"/><line style="stroke:#181818;stroke-width:1.0;" x1="199.25" x2="205.25" y1="155.49" y2="163.49"/><line style="stroke:#181818;stroke-width:1.0;" x1="199.25" x2="193.25" y1="155.49" y2="163.49"/><line style="stroke:#181818;stroke-width:1.0;" x1="199.25" x2="199.25" y1="155.49" y2="163.49"/><ellipse cx="199.25" cy="149.49" fill="none" rx="4" ry="4" style="stroke:#181818;stroke-width:1.0;"/></g><!--link task to comment--><g id="link_task_comment"><path codeLine="46" d="M114.25,301.84 C114.25,321.23 114.25,316.32 114.25,335.13 " fill="none" id="task-comment" style="stroke:#181818;stroke-width:1.0;"/><line style="stroke:#181818;stroke-width:1.0;" x1="110.25" x2="118.25" y1="297.84" y2="297.84"/><line style="stroke:#181818;stroke-width:1.0;" x1="110.25" x2="118.25" y1="300.84" y2="300.84"/><line style="stroke:#181818;stroke-width:1.0;" x1="114.25" x2="114.25" y1="301.84" y2="293.84"/><line style="stroke:#181818;stroke-width:1.0;" x1="114.25" x2="120.25" y1="345.13" y2="353.13"/><line style="stroke:#181818;stroke-width:1.0;" x1="114.25" x2="108.25" y1="345.13" y2="353.13"/><line style="stroke:#181818;stroke-width:1.0;" x1="114.25" x2="114.25" y1="345.13" y2="353.13"/><ellipse cx="114.25" cy="339.13" fill="none" rx="4" ry="4" style="stroke:#181818;stroke-width:1.0;"/></g><!--link user to comment--><g id="link_user_comment"><path codeLine="47" d="M143.57,55.56 C97.26,55.56 57.75,55.56 57.75,55.56 C57.75,55.56 57.75,234.84 57.75,335.02 " fill="none" id="user-comment" style="stroke:#181818;stroke-width:1.0;"/><line style="stroke:#181818;stroke-width:1.0;" x1="147.57" x2="147.57" y1="51.56" y2="59.56"/><line style="stroke:#181818;stroke-width:1.0;" x1="144.57" x2="144.57" y1="51.56" y2="59.56"/><line style="stroke:#181818;stroke-width:1.0;" x1="143.57" x2="151.57" y1="55.56" y2="55.56"/><line style="stroke:#181818;stroke-width:1.0;" x1="57.75" x2="63.75" y1="345.02" y2="353.02"/><line style="stroke:#181818;stroke-width:1.0;" x1="57.75" x2="51.75" y1="345.02" y2="353.02"/><line style="stroke:#181818;stroke-width:1.0;" x1="57.75" x2="57.75" y1="345.02" y2="353.02"/><ellipse cx="57.75" cy="339.02" fill="none" rx="4" ry="4" style="stroke:#181818;stroke-width:1.0;"/></g><!--link task to view--><g id="link_task_view"><path codeLine="49" d="M254.99,229.56 C289.39,229.56 315.67,229.56 315.67,229.56 C315.67,229.56 315.67,289.72 315.67,343.15 " fill="none" id="task-view" style="stroke:#181818;stroke-width:1.0;"/><line style="stroke:#181818;stroke-width:1.0;" x1="250.99" x2="250.99" y1="233.56" y2="225.56"/><line style="stroke:#181818;stroke-width:1.0;" x1="253.99" x2="253.99" y1="233.56" y2="225.56"/><line style="stroke:#181818;stroke-width:1.0;" x1="254.99" x2="246.99" y1="229.56" y2="229.56"/><line style="stroke:#181818;stroke-width:1.0;" x1="315.67" x2="321.67" y1="353.15" y2="361.15"/><line style="stroke:#181818;stroke-width:1.0;" x1="315.67" x2="309.67" y1="353.15" y2="361.15"/><line style="stroke:#181818;stroke-width:1.0;" x1="315.67" x2="315.67" y1="353.15" y2="361.15"/><ellipse cx="315.67" cy="347.15" fill="none" rx="4" ry="4" style="stroke:#181818;stroke-width:1.0;"/></g><!--link user to view--><g id="link_user_view"><path codeLine="50" d="M320.33,112.37 C320.33,180.08 320.33,275.66 320.33,343.26 " fill="none" id="user-view" style="stroke:#181818;stroke-width:1.0;"/><line style="stroke:#181818;stroke-width:1.0;" x1="316.33" x2="324.33" y1="108.37" y2="108.37"/><line style="stroke:#181818;stroke-width:1.0;" x1="316.33" x2="324.33" y1="111.37" y2="111.37"/><line style="stroke:#181818;stroke-width:1.0;" x1="320.33" x2="320.33" y1="112.37" y2="104.37"/><line style="stroke:#181818;stroke-width:1.0;" x1="320.33" x2="326.33" y1="353.26" y2="361.26"/><line style="stroke:#181818;stroke-width:1.0;" x1="320.33" x2="314.33" y1="353.26" y2="361.26"/><line style="stroke:#181818;stroke-width:1.0;" x1="320.33" x2="320.33" y1="353.26" y2="361.26"/><ellipse cx="320.33" cy="347.26" fill="none" rx="4" ry="4" style="stroke:#181818;stroke-width:1.0;"/></g><!--link task to like--><g id="link_task_like"><path codeLine="52" d="M202.75,301.84 C202.75,324.08 202.75,322.54 202.75,343.25 " fill="none" id="task-like" style="stroke:#181818;stroke-width:1.0;"/><line style="stroke:#181818;stroke-width:1.0;" x1="198.75" x2="206.75" y1="297.84" y2="297.84"/><line style="stroke:#181818;stroke-width:1.0;" x1="198.75" x2="206.75" y1="300.84" y2="300.84"/><line style="stroke:#181818;stroke-width:1.0;" x1="202.75" x2="202.75" y1="301.84" y2="293.84"/><line style="stroke:#181818;stroke-width:1.0;" x1="202.75" x2="208.75" y1="353.25" y2="361.25"/><line style="stroke:#181818;stroke-width:1.0;" x1="202.75" x2="196.75" y1="353.25" y2="361.25"/><line style="stroke:#181818;stroke-width:1.0;" x1="202.75" x2="202.75" y1="353.25" y2="361.25"/><ellipse cx="202.75" cy="347.25" fill="none" rx="4" ry="4" style="stroke:#181818;stroke-width:1.0;"/></g><!--link user to like--><g id="link_user_like"><path codeLine="53" d="M260.25,112.37 C260.25,180.08 260.25,275.66 260.25,343.26 " fill="none" id="user-like" style="stroke:#181818;stroke-width:1.0;"/><line style="stroke:#181818;stroke-width:1.0;" x1="256.25" x2="264.25" y1="108.37" y2="108.37"/><line style="stroke:#181818;stroke-width:1.0;" x1="256.25" x2="264.25" y1="111.37" y2="111.37"/><line style="stroke:#181818;stroke-width:1.0;" x1="260.25" x2="260.25" y1="112.37" y2="104.37"/><line style="stroke:#181818;stroke-width:1.0;" x1="260.25" x2="266.25" y1="353.26" y2="361.26"/><line style="stroke:#181818;stroke-width:1.0;" x1="260.25" x2="254.25" y1="353.26" y2="361.26"/><line style="stroke:#181818;stroke-width:1.0;" x1="260.25" x2="260.25" y1="353.26" y2="361.26"/><ellipse cx="260.25" cy="347.26" fill="none" rx="4" ry="4" style="stroke:#181818;stroke-width:1.0;"/></g><!--SRC=[fP7DJiCm48JlVefLBmMal01NhXo1Q-N62rx5iIFlfg5gUNTifpyn5GV4RVRBP6QpMOCbWo0MWOSWQZtFBSNMeKgZtWKoCCImTTWpJ2GMjFzmQA2DOM9uHnJ57Vb1Hzs38u-o7n1251kKGYyaUrYzCaQuwpLvCDlx5MY6CQE30dY0LF48uqWcJKrJaDSz9YZuAMKUDFCKejbOpVRyuEjQyAAvAx6In2NsPweUqrPnfW05fTSTBefOj8ny0GQvZJG81NzR-XJwFkdIsyxwr-gyrsQ1wsLcIug_BNcc3ak3I-8FyVc-Lx88V2ESIk0kYVy4bZzuF3PDE1IxAhS_WTCzAjEPLSQyHUKgeBBaBwyi6Nm3]--></g></svg>